<?xml version="1.0" encoding="UTF-8"?>
<svg version="1.1" xmlns="http://www.w3.org/2000/svg" width="3000" height="3000">
<path d="M0 0 C140.25 0 280.5 0 425 0 C425 617.76 425 1235.52 425 1872 C685.37 1872 945.74 1872 1214 1872 C1214 1813.26 1214 1754.52 1214 1694 C1210.37 1693.34 1206.74 1692.68 1203 1692 C1198.375 1690.5 1198.375 1690.5 1196.21484375 1689.73046875 C1192.54627914 1688.52055414 1188.78335529 1687.7602487 1185 1687 C1185 1686.34 1185 1685.68 1185 1685 C1183.9275 1684.896875 1182.855 1684.79375 1181.75 1684.6875 C1176.04712923 1683.9900266 1170.54427239 1682.46923218 1165 1681 C1165 1680.34 1165 1679.68 1165 1679 C1164.28714844 1678.87882812 1163.57429688 1678.75765625 1162.83984375 1678.6328125 C1157.44765159 1677.68936031 1152.22764328 1676.62637791 1147 1675 C1147 1674.34 1147 1673.68 1147 1673 C1145.98679687 1672.80083984 1145.98679687 1672.80083984 1144.953125 1672.59765625 C1144.06109375 1672.42105469 1143.1690625 1672.24445313 1142.25 1672.0625 C1140.92742188 1671.80146484 1140.92742188 1671.80146484 1139.578125 1671.53515625 C1137.36764947 1671.07631512 1135.18487932 1670.56663926 1133 1670 C1133 1669.34 1133 1668.68 1133 1668 C1132.43152344 1667.87882812 1131.86304688 1667.75765625 1131.27734375 1667.6328125 C1126.45754536 1666.58677946 1121.7267066 1665.40795516 1117 1664 C1117 1663.34 1117 1662.68 1117 1662 C1115.7625 1661.773125 1114.525 1661.54625 1113.25 1661.3125 C1108.19231642 1660.20188702 1103.62486418 1658.29579043 1098.89453125 1656.21875 C1095.9688518 1654.98688497 1093.02233938 1653.9671486 1090 1653 C1090 1652.34 1090 1651.68 1090 1651 C1089.29875 1650.87625 1088.5975 1650.7525 1087.875 1650.625 C1084.82343613 1649.96161655 1081.94659062 1649.02788045 1079 1648 C1079 1647.34 1079 1646.68 1079 1646 C1078.360625 1645.9175 1077.72125 1645.835 1077.0625 1645.75 C1072.78064573 1644.70138263 1068.99039219 1642.84844458 1065 1641 C1064.18660156 1640.6390625 1063.37320312 1640.278125 1062.53515625 1639.90625 C1056.17494817 1637.07524009 1049.94832835 1634.01277713 1043.74584961 1630.85449219 C1039.55756805 1628.73280728 1035.33362908 1626.80754995 1031 1625 C1031 1624.34 1031 1623.68 1031 1623 C1028.03 1622.01 1025.06 1621.02 1022 1620 C1022 1619.34 1022 1618.68 1022 1618 C1021.37351562 1617.79503906 1020.74703125 1617.59007812 1020.1015625 1617.37890625 C1019.28429688 1617.10949219 1018.46703125 1616.84007812 1017.625 1616.5625 C1016.81289062 1616.29566406 1016.00078125 1616.02882813 1015.1640625 1615.75390625 C1013 1615 1013 1615 1011 1614 C1011 1613.34 1011 1612.68 1011 1612 C1008.03 1611.01 1005.06 1610.02 1002 1609 C1002 1608.34 1002 1607.68 1002 1607 C1001.113125 1606.71125 1000.22625 1606.4225 999.3125 1606.125 C991.45714286 1603.45714286 991.45714286 1603.45714286 988 1600 C986.02379014 1598.95377125 984.0262871 1597.94560065 982 1597 C982 1596.34 982 1595.68 982 1595 C981.21625 1594.79375 980.4325 1594.5875 979.625 1594.375 C975.46777285 1592.79812073 971.94131753 1590.67575586 968.171875 1588.33984375 C966.06323696 1586.99453824 966.06323696 1586.99453824 964 1586 C964 1585.34 964 1584.68 964 1584 C962.9171875 1583.59394531 962.9171875 1583.59394531 961.8125 1583.1796875 C955.28773157 1580.44290963 949.44384724 1576.48316831 944 1572 C943.29875 1571.649375 942.5975 1571.29875 941.875 1570.9375 C940 1570 940 1570 938.80859375 1568.75 C936.17282277 1566.19962117 933.17786053 1564.16984308 930.1875 1562.0625 C929.58357422 1561.63259766 928.97964844 1561.20269531 928.35742188 1560.75976562 C925.4605278 1558.70481062 922.55046006 1556.71059274 919.55078125 1554.80859375 C918.70902344 1554.21175781 917.86726563 1553.61492187 917 1553 C917 1552.34 917 1551.68 917 1551 C916.01 1550.690625 916.01 1550.690625 915 1550.375 C910.86315982 1548.47894825 907.57147013 1545.79258569 904 1543 C903.16984375 1542.37996094 902.3396875 1541.75992187 901.484375 1541.12109375 C900.25460937 1540.19490234 900.25460937 1540.19490234 899 1539.25 C898.236875 1538.67765625 897.47375 1538.1053125 896.6875 1537.515625 C896.130625 1537.01546875 895.57375 1536.5153125 895 1536 C895 1535.34 895 1534.68 895 1534 C893.9790625 1533.690625 893.9790625 1533.690625 892.9375 1533.375 C889.69677364 1531.85806426 887.53961356 1530.01300364 884.89453125 1527.64453125 C882.95589915 1525.96171865 880.9491051 1524.44913592 878.875 1522.9375 C875.61461417 1520.52656335 872.83604267 1517.90694374 870 1515 C866.34874565 1511.69938803 862.61908519 1508.49483013 858.8125 1505.375 C856.04931135 1503.0416407 853.55610365 1500.55610365 851 1498 C849.84111418 1496.99099318 848.67397352 1495.99141176 847.5 1495 C839.36294416 1488.08883249 839.36294416 1488.08883249 838 1484 C836.69045417 1483.28774167 835.35265175 1482.62654246 834 1482 C828.93889645 1478.13895193 824.63353358 1473.65502801 820.54296875 1468.796875 C819.0324814 1466.97551144 819.0324814 1466.97551144 817.30078125 1465.390625 C816 1464 816 1464 816 1462 C815.13181641 1461.61908203 815.13181641 1461.61908203 814.24609375 1461.23046875 C808.29007045 1457.96760381 803.89317254 1452.12329312 800.140625 1446.58203125 C798.36553648 1444.12000779 796.16847879 1442.11558906 794 1440 C792.51703225 1438.30068417 791.06562566 1436.57904909 789.625 1434.84375 C788.36871212 1433.41834645 787.04452665 1432.05262388 785.6953125 1430.71484375 C782.61220873 1427.60939865 779.73605872 1424.37147398 776.875 1421.0625 C776.30950439 1420.40934814 775.74400879 1419.75619629 775.16137695 1419.08325195 C769.98109429 1413.05566917 765.07011683 1406.83921037 760.20947266 1400.55322266 C758.45875169 1398.30492093 756.66666838 1396.0907319 754.875 1393.875 C750.44566529 1388.3518908 746.21577946 1382.68691083 742 1377 C741.236875 1375.98808594 740.47375 1374.97617188 739.6875 1373.93359375 C738.965625 1372.96550781 738.24375 1371.99742188 737.5 1371 C736.8503125 1370.13375 736.200625 1369.2675 735.53125 1368.375 C734.10692188 1366.16583802 733.42797894 1364.56787362 733 1362 C732.34 1362 731.68 1362 731 1362 C730.0234375 1360.20963542 729.046875 1358.41927083 728.0703125 1356.62890625 C727.08589976 1354.83381685 727.08589976 1354.83381685 725 1354 C724.07265368 1352.38573048 723.15070166 1350.76815838 722.25390625 1349.13671875 C720.87192764 1346.78175831 719.33975802 1344.59486712 717.75 1342.375 C713.53129345 1336.43086957 709.76875849 1330.23558223 706 1324 C705.39285156 1323.01644531 704.78570313 1322.03289062 704.16015625 1321.01953125 C703.33837891 1319.67955078 703.33837891 1319.67955078 702.5 1318.3125 C702.0153125 1317.52488281 701.530625 1316.73726562 701.03125 1315.92578125 C700 1314 700 1314 700 1312 C699.34 1311.67 698.68 1311.34 698 1311 C692.71862042 1303.38752875 688.4965443 1295.25635256 684.54296875 1286.8984375 C683.19035455 1284.35757742 682.08048899 1282.90317459 680 1281 C678.60359014 1278.06018976 678 1276.27763744 678 1273 C677.34 1273 676.68 1273 676 1273 C675.32591692 1271.73308493 674.66099503 1270.46129251 674 1269.1875 C673.62875 1268.47980469 673.2575 1267.77210937 672.875 1267.04296875 C672 1265 672 1265 672 1262 C671.34 1262 670.68 1262 670 1262 C669.55269531 1261.03320312 669.10539063 1260.06640625 668.64453125 1259.0703125 C664.54733981 1250.23709839 664.54733981 1250.23709839 660.25 1241.5 C655 1231.08663366 655 1231.08663366 655 1227 C654.34 1227 653.68 1227 653 1227 C652.49384702 1225.73160474 651.99530901 1224.46016898 651.5 1223.1875 C651.2215625 1222.47980469 650.943125 1221.77210937 650.65625 1221.04296875 C650 1219 650 1219 650 1216 C649.34 1216 648.68 1216 648 1216 C639.875 1195.6875 639.875 1195.6875 638.92578125 1193.30859375 C638.3035484 1191.7569498 637.67585041 1190.20748733 637.04296875 1188.66015625 C629.1327428 1169.21549725 629.1327428 1169.21549725 628 1161 C627.34 1161 626.68 1161 626 1161 C625.67386719 1159.865625 625.34773437 1158.73125 625.01171875 1157.5625 C624.5704756 1156.04161934 624.1290601 1154.52078867 623.6875 1153 C623.47416016 1152.25621094 623.26082031 1151.51242187 623.04101562 1150.74609375 C621.95183998 1147.00713258 620.78431781 1143.35033948 619.375 1139.71875 C617.86234334 1135.62770132 617.38423541 1132.30343661 617 1128 C616.34 1128 615.68 1128 615 1128 C614.74476563 1126.90945313 614.74476563 1126.90945313 614.484375 1125.796875 C613.21868723 1120.54561722 611.85161259 1115.41111729 610.0625 1110.3125 C608.09592769 1104.60868681 606.70089533 1098.84467805 605.39477539 1092.9621582 C604.48065124 1088.8752315 603.34485782 1084.96292119 602 1081 C601.59084739 1079.32045381 601.21350236 1077.63269834 600.875 1075.9375 C600.62363281 1074.71353516 600.62363281 1074.71353516 600.3671875 1073.46484375 C599.9909669 1070.93936288 599.93637849 1068.54940492 600 1066 C599.34 1066 598.68 1066 598 1066 C597.85900879 1065.18845459 597.71801758 1064.37690918 597.57275391 1063.54077148 C597.04271287 1060.50052383 596.50928557 1057.46089442 595.97363281 1054.42163086 C595.63088485 1052.47099171 595.2919712 1050.51968008 594.953125 1048.56835938 C594.73398437 1047.32763672 594.51484375 1046.08691406 594.2890625 1044.80859375 C593.99056396 1043.10401001 593.99056396 1043.10401001 593.68603516 1041.36499023 C592.96836448 1037.84482834 592.00406446 1034.44802076 591 1031 C590.57952873 1028.67443053 590.20409748 1026.34024877 589.875 1024 C589.62363281 1022.2675 589.62363281 1022.2675 589.3671875 1020.5 C588.99709208 1016.972282 588.93670958 1013.54426333 589 1010 C588.34 1010 587.68 1010 587 1010 C586.42285684 1005.19942757 585.85351728 1000.39801321 585.29101562 995.59570312 C585.099085 993.96622504 584.90511983 992.33698513 584.70898438 990.70800781 C583.67410317 982.10159779 582.71922868 973.6863628 583 965 C582.34 965 581.68 965 581 965 C578.67566494 936.59948979 577.50948556 908.37649936 577.60888672 879.8815918 C577.62598833 874.92609457 577.61578609 869.97108106 577.59854507 865.0156002 C577.53747202 844.16493632 577.98489692 823.43188147 579.4609375 802.62890625 C579.52772327 801.68362501 579.59450905 800.73834377 579.66331863 799.76441765 C579.85392556 797.12684029 580.05366545 794.49020624 580.25927734 791.85375977 C580.31856289 791.06750528 580.37784843 790.2812508 580.43893051 789.47117043 C580.88124303 784.11875697 580.88124303 784.11875697 582 783 C582.23323785 781.62835493 582.40771299 780.24662164 582.55664062 778.86328125 C582.70184143 777.54686646 582.70184143 777.54686646 582.84997559 776.20385742 C582.95104614 775.24970947 583.0521167 774.29556152 583.15625 773.3125 C583.2634436 772.33966064 583.37063721 771.36682129 583.4810791 770.36450195 C583.82487407 767.24343941 584.16308959 764.12181278 584.5 761 C584.94298765 756.89527521 585.39157593 752.79122179 585.84375 748.6875 C585.94482056 747.73335205 586.04589111 746.7792041 586.15002441 745.79614258 C586.29522522 744.47972778 586.29522522 744.47972778 586.44335938 743.13671875 C586.56874084 741.97209106 586.56874084 741.97209106 586.69665527 740.78393555 C587 739 587 739 588 738 C588.3458668 736.07657434 588.63604947 734.14307812 588.90234375 732.20703125 C589.15467773 730.42522461 589.15467773 730.42522461 589.41210938 728.60742188 C589.7596432 726.09716824 590.1060161 723.58675359 590.45117188 721.07617188 C590.62068359 719.88185547 590.79019531 718.68753906 590.96484375 717.45703125 C591.1155835 716.36366455 591.26632324 715.27029785 591.42163086 714.14379883 C592.00868329 710.95280085 592.95244387 708.06628675 594 705 C594.3716244 703.2786564 594.70580861 701.54875456 595 699.8125 C595.165 698.86632812 595.33 697.92015625 595.5 696.9453125 C595.665 695.97335937 595.83 695.00140625 596 694 C596.99245638 688.15381163 598.02449836 682.60658561 600 677 C600.50711419 674.73524396 600.98529467 672.46385565 601.4375 670.1875 C602.43003852 665.41932499 603.61311031 660.9180196 605.25 656.33984375 C606.18397591 653.42603347 606.83702729 650.48683018 607.5 647.5 C608.51051464 642.9632103 609.70695402 638.62609407 611.25 634.24609375 C612.11108516 631.6673231 612.80760787 629.06642637 613.5 626.4375 C614.55185496 622.49852232 615.77895973 618.7259178 617.2578125 614.9296875 C619.12707875 610.06959524 620.66872002 605.09354451 622.1953125 600.1171875 C622.41010254 599.41980469 622.62489258 598.72242188 622.84619141 598.00390625 C623.2713299 596.61958672 623.69306834 595.23421684 624.11083984 593.84765625 C625.11734354 590.56863699 626.21102675 587.39989062 627.58203125 584.25390625 C628.63644803 581.83426664 629.51457854 579.59889627 630.1875 577.0625 C630.455625 576.051875 630.72375 575.04125 631 574 C631.66 574 632.32 574 633 574 C633.10594482 573.45327637 633.21188965 572.90655273 633.32104492 572.34326172 C634.4868351 566.68981263 636.1617184 561.47455921 638.3125 556.125 C638.62010254 555.34560059 638.92770508 554.56620117 639.24462891 553.76318359 C641.34791577 548.48363825 643.59751876 543.28994431 646.0546875 538.1640625 C646.94912749 536.1164602 647.53206292 534.18038767 648 532 C648.66 532 649.32 532 650 532 C651.485 526.555 651.485 526.555 653 521 C653.66 521 654.32 521 655 521 C655.391875 519.741875 655.78375 518.48375 656.1875 517.1875 C657.76639378 512.42060061 659.77940948 507.92380166 661.9140625 503.3828125 C663.08055484 500.93444708 663.08055484 500.93444708 664 498 C664.66 498 665.32 498 666 498 C666.20496094 497.38511719 666.40992188 496.77023437 666.62109375 496.13671875 C667.74739583 492.7578125 668.87369792 489.37890625 670 486 C670.66 486 671.32 486 672 486 C672.18175781 485.39671875 672.36351562 484.7934375 672.55078125 484.171875 C673.90707585 479.85955371 675.14381928 476.54166409 678 473 C678.95771864 471.1175875 679.9122788 469.23338976 680.83984375 467.3359375 C683.92194871 461.13021774 687.18311792 455.07878392 691.125 449.375 C693.67845007 445.67182896 695.48724504 441.92695989 697.140625 437.75 C698 436 698 436 700 435 C701.01799137 433.25313389 701.01799137 433.25313389 701.9375 431.1875 C703.37937751 428.17462162 704.9453265 425.64172308 707 423 C707.33 422.01 707.66 421.02 708 420 C708.66 419.67 709.32 419.34 710 419 C710.78020873 417.71718489 711.50012762 416.3973631 712.1875 415.0625 C714.49277132 410.79941855 717.08491926 406.89452941 719.8984375 402.953125 C722.5528081 399.22319159 725.15362338 395.45793878 727.75 391.6875 C728.22195801 391.00550537 728.69391602 390.32351074 729.18017578 389.62084961 C731.12854061 386.79227495 732.99745294 384.00445735 734.703125 381.01953125 C735.13109375 380.35308594 735.5590625 379.68664062 736 379 C736.66 379 737.32 379 738 379 C738.20625 378.34 738.4125 377.68 738.625 377 C740.92081344 371.99095249 744.4751493 367.89517158 747.9140625 363.62109375 C750.15709952 360.80259593 752.32660648 357.93500176 754.5 355.0625 C758.63248804 349.64390029 762.98236837 344.45717123 767.45581055 339.31835938 C771.04951511 335.16907004 774.45969916 330.90797124 777.8125 326.5625 C781.1017953 322.30467387 784.46963681 318.34238866 788.3828125 314.64453125 C790.98560073 311.99773452 793.13871693 309.01615719 795.37890625 306.0625 C797.39590525 303.49629404 799.66390385 301.27619625 802 299 C802.94495775 297.88125691 803.88190722 296.75572027 804.8125 295.625 C807.64157347 292.27094382 810.78058674 289.46889932 814.11328125 286.625 C817.32233864 283.86109136 820.24218096 280.99300426 822.8125 277.625 C825.31243329 274.62508005 828.0858864 272.22860274 831.046875 269.6953125 C833.48745323 267.5768906 835.74607716 265.31483967 838 263 C839.66666667 261.33333333 841.33333333 259.66666667 843 258 C843.7425 257.236875 844.485 256.47375 845.25 255.6875 C848.3437841 252.66402918 851.56184071 249.81329366 854.81640625 246.96484375 C856.24859116 245.67613354 857.64437816 244.34553373 858.99609375 242.97265625 C861.72118609 240.29006047 864.73155328 238.0789667 867.78125 235.78125 C870.02212974 233.98223387 871.99007204 232.05086336 874 230 C878.46123829 225.9512363 883.19128214 222.25837809 887.984375 218.61328125 C889.95296468 217.10458388 889.95296468 217.10458388 891.36328125 215.60546875 C893.85762547 213.15874924 896.65995093 211.11031661 899.4375 209 C900.01048828 208.56171875 900.58347656 208.1234375 901.17382812 207.671875 C902.78001683 206.44459157 904.38990034 205.22214805 906 204 C906.75410156 203.401875 907.50820312 202.80375 908.28515625 202.1875 C910 201 910 201 912 201 C912.33 200.01 912.66 199.02 913 198 C917.33333333 195 917.33333333 195 920 195 C920 194.34 920 193.68 920 193 C921.093125 192.401875 922.18625 191.80375 923.3125 191.1875 C925.37237068 190.01927675 926.94489561 189.05510439 928.625 187.375 C930.49294825 185.50705175 932.53589976 184.86576495 935 184 C935 183.34 935 182.68 935 182 C937.26298453 180.3633245 939.51267112 178.85434489 941.875 177.375 C942.52597656 176.95476562 943.17695312 176.53453125 943.84765625 176.1015625 C948.73161019 173 948.73161019 173 951 173 C951 172.34 951 171.68 951 171 C957.75 167 957.75 167 960 167 C960 166.34 960 165.68 960 165 C965.75 162 965.75 162 968 162 C968 161.34 968 160.68 968 160 C968.47566406 159.74347656 968.95132813 159.48695313 969.44140625 159.22265625 C973.2756861 157.12545346 977.06533014 154.97434722 980.796875 152.69921875 C981.45872803 152.29630615 982.12058105 151.89339355 982.80249023 151.47827148 C984.12767787 150.66847931 985.45018442 149.85428091 986.76977539 149.03540039 C989.83159834 147.16577052 992.49631357 145.74727473 996 145 C996 144.34 996 143.68 996 143 C997.28913487 142.32845067 998.58140204 141.66291141 999.875 141 C1000.59429688 140.62875 1001.31359375 140.2575 1002.0546875 139.875 C1004 139 1004 139 1006 139 C1006 138.34 1006 137.68 1006 137 C1008.97 136.01 1011.94 135.02 1015 134 C1015 133.34 1015 132.68 1015 132 C1016.4562545 131.32880451 1017.91507867 130.66318193 1019.375 130 C1020.18710938 129.62875 1020.99921875 129.2575 1021.8359375 128.875 C1024 128 1024 128 1026 128 C1026 127.34 1026 126.68 1026 126 C1032.625 123 1032.625 123 1036 123 C1036 122.34 1036 121.68 1036 121 C1036.80050781 120.62246582 1036.80050781 120.62246582 1037.6171875 120.23730469 C1040.07857117 119.07581265 1042.53928799 117.91291427 1045 116.75 C1045.83917969 116.35425781 1046.67835937 115.95851563 1047.54296875 115.55078125 C1051.5312338 113.66485747 1055.50634621 111.76056571 1059.44921875 109.78125 C1066.98684211 106 1066.98684211 106 1071 106 C1071 105.34 1071 104.68 1071 104 C1072.7902061 103.32942113 1074.58221489 102.6636531 1076.375 102 C1077.37273437 101.62875 1078.37046875 101.2575 1079.3984375 100.875 C1082 100 1082 100 1084 100 C1084 99.34 1084 98.68 1084 98 C1085.43554025 97.49440092 1086.8735202 96.9957251 1088.3125 96.5 C1089.51326172 96.08234375 1089.51326172 96.08234375 1090.73828125 95.65625 C1093 95 1093 95 1096 95 C1096 94.34 1096 93.68 1096 93 C1097.93558599 92.32779649 1099.87354372 91.66241923 1101.8125 91 C1102.89144531 90.62875 1103.97039062 90.2575 1105.08203125 89.875 C1108 89 1108 89 1111 89 C1111 88.34 1111 87.68 1111 87 C1112.43554025 86.49440092 1113.8735202 85.9957251 1115.3125 85.5 C1116.51326172 85.08234375 1116.51326172 85.08234375 1117.73828125 84.65625 C1120 84 1120 84 1123 84 C1123 83.34 1123 82.68 1123 82 C1125.26949102 81.32844651 1127.5403961 80.6626037 1129.8125 80 C1131.07707031 79.62875 1132.34164063 79.2575 1133.64453125 78.875 C1137 78 1137 78 1140 78 C1140 77.34 1140 76.68 1140 76 C1141.76949612 75.49528803 1143.54065223 74.99639315 1145.3125 74.5 C1146.29863281 74.2215625 1147.28476563 73.943125 1148.30078125 73.65625 C1151 73 1151 73 1154 73 C1154 72.34 1154 71.68 1154 71 C1156.41509441 70.32713788 1158.83180356 69.66153988 1161.25 69 C1162.27287109 68.71382812 1162.27287109 68.71382812 1163.31640625 68.421875 C1166.70600912 67.50042956 1169.45778976 67 1173 67 C1173 66.34 1173 65.68 1173 65 C1173.57967529 64.85900879 1174.15935059 64.71801758 1174.7565918 64.57275391 C1177.4011643 63.92727204 1180.0443275 63.2761899 1182.6875 62.625 C1183.59951172 62.40328125 1184.51152344 62.1815625 1185.45117188 61.953125 C1189.78233097 60.88214748 1193.88410215 59.74568245 1198 58 C1202.63687783 56.71374279 1207.16153538 55.68784099 1212 56 C1212 55.34 1212 54.68 1212 54 C1212.69037354 53.85900879 1213.38074707 53.71801758 1214.09204102 53.57275391 C1217.2494389 52.92629079 1220.40596866 52.27568046 1223.5625 51.625 C1224.64853516 51.40328125 1225.73457031 51.1815625 1226.85351562 50.953125 C1232.31330453 49.82465799 1237.65484583 48.57770454 1243 47 C1248.65593736 45.75676818 1254.18390909 44.68561671 1260 45 C1260 44.34 1260 43.68 1260 43 C1264.5196538 42.32517032 1269.04089074 41.66158989 1273.5625 41 C1274.83931641 40.80921875 1276.11613281 40.6184375 1277.43164062 40.421875 C1278.67236328 40.24140625 1279.91308594 40.0609375 1281.19140625 39.875 C1282.32779541 39.70742187 1283.46418457 39.53984375 1284.63500977 39.3671875 C1288.11682362 38.98725222 1291.50037444 38.93774985 1295 39 C1295 38.34 1295 37.68 1295 37 C1299.45735314 36.49100078 1303.91601174 35.99445324 1308.375 35.5 C1310.25251953 35.28537109 1310.25251953 35.28537109 1312.16796875 35.06640625 C1319.1456895 34.29922229 1325.97938414 33.77874919 1333 34 C1333 33.34 1333 32.68 1333 32 C1361.04277764 29.63984516 1388.90222966 28.51093781 1417.04296875 28.60888672 C1422.00633631 28.62597652 1426.96922032 28.61580565 1431.93257141 28.59852982 C1459.07338323 28.51925196 1485.95605019 29.72390917 1513 32 C1513 32.66 1513 33.32 1513 34 C1513.944198 33.97389648 1513.944198 33.97389648 1514.9074707 33.94726562 C1522.76170998 33.82820831 1530.39562921 34.56749579 1538.1875 35.5 C1539.42564453 35.64308594 1540.66378906 35.78617188 1541.93945312 35.93359375 C1544.96033043 36.28350232 1547.98042301 36.63907144 1551 37 C1551 37.66 1551 38.32 1551 39 C1551.76699219 39.03738281 1552.53398438 39.07476562 1553.32421875 39.11328125 C1564.31416953 39.76425394 1575.12304164 41.34494607 1586 43 C1586 43.66 1586 44.32 1586 45 C1586.73863281 45.04898438 1587.47726562 45.09796875 1588.23828125 45.1484375 C1605.27355978 46.4038964 1605.27355978 46.4038964 1611.20703125 48.9453125 C1616.07727931 50.78442715 1621.23531641 51.47735835 1626.34375 52.41210938 C1631.37325517 53.3684774 1636.13173821 54.58602257 1640.95214844 56.31860352 C1643.11677948 57.03885688 1645.2668348 57.53930582 1647.5 58 C1650.52658728 58.63249924 1653.39217188 59.42196247 1656.3125 60.4375 C1661.77786359 62.33681075 1667.37639627 63.65832804 1673 65 C1673 65.66 1673 66.32 1673 67 C1674.093125 67.103125 1675.18625 67.20625 1676.3125 67.3125 C1681.68965184 67.9689566 1686.81178648 69.483592 1692 71 C1692 71.66 1692 72.32 1692 73 C1693.010625 73.12375 1694.02125 73.2475 1695.0625 73.375 C1698.87937612 73.98085335 1702.31500112 74.87193912 1706 76 C1706 76.66 1706 77.32 1706 78 C1706.94875 78.103125 1707.8975 78.20625 1708.875 78.3125 C1713.73491554 78.9910919 1718.33803874 80.5085476 1723 82 C1723 82.66 1723 83.32 1723 84 C1724.2375 84.226875 1725.475 84.45375 1726.75 84.6875 C1731.66227769 85.78166777 1736.08283456 87.58205573 1740.69140625 89.578125 C1744.2890622 91.12422508 1747.91953042 92.56528145 1751.5625 94 C1757.80204089 96.47755736 1763.91629382 99.16326469 1770 102 C1770.99128906 102.44988281 1771.98257813 102.89976562 1773.00390625 103.36328125 C1781.78159985 107.35901662 1790.39255661 111.65418321 1799 116 C1801.89457923 117.46083981 1804.79063462 118.91869994 1807.6875 120.375 C1808.34661377 120.70870605 1809.00572754 121.04241211 1809.68481445 121.38623047 C1813.07069365 123.088139 1816.45523452 124.65800466 1820 126 C1820 126.66 1820 127.32 1820 128 C1820.62648438 128.20496094 1821.25296875 128.40992188 1821.8984375 128.62109375 C1822.71570312 128.89050781 1823.53296875 129.15992188 1824.375 129.4375 C1825.18710938 129.70433594 1825.99921875 129.97117187 1826.8359375 130.24609375 C1829 131 1829 131 1831 132 C1831 132.66 1831 133.32 1831 134 C1831.556875 134.15855469 1832.11375 134.31710937 1832.6875 134.48046875 C1838.46684299 136.24746382 1842.99170637 138.67817259 1848 142 C1854.85809623 146.32508079 1861.65839946 150.54512916 1869 154 C1869 154.66 1869 155.32 1869 156 C1869.7425 156.28875 1870.485 156.5775 1871.25 156.875 C1873.56739797 157.82302644 1875.77917115 158.84845911 1878 160 C1878 160.66 1878 161.32 1878 162 C1878.94875 162.309375 1879.8975 162.61875 1880.875 162.9375 C1884 164 1884 164 1886 165 C1886 165.66 1886 166.32 1886 167 C1886.7425 167.28875 1887.485 167.5775 1888.25 167.875 C1890.56739797 168.82302644 1892.77917115 169.84845911 1895 171 C1895 171.66 1895 172.32 1895 173 C1895.70511719 173.2578125 1896.41023438 173.515625 1897.13671875 173.78125 C1900.24269315 175.10330186 1902.95978065 176.69747854 1905.8125 178.5 C1906.78832031 179.1084375 1907.76414062 179.716875 1908.76953125 180.34375 C1909.87361328 181.16359375 1909.87361328 181.16359375 1911 182 C1911 182.66 1911 183.32 1911 184 C1911.70253906 184.23976563 1912.40507812 184.47953125 1913.12890625 184.7265625 C1916.48175084 186.21367452 1919.03949783 188.12970102 1921.9375 190.375 C1925.0263189 192.75837252 1928.08451808 195.07739104 1931.37890625 197.1640625 C1932.67634766 198.07285156 1932.67634766 198.07285156 1934 199 C1934 199.66 1934 200.32 1934 201 C1934.66 201.20625 1935.32 201.4125 1936 201.625 C1942.37720453 204.54788541 1947.67952932 209.48916616 1953 214 C1953.969375 214.804375 1954.93875 215.60875 1955.9375 216.4375 C1958.0363478 218.19367877 1960.11746406 219.96089751 1962.1875 221.75 C1966.16574347 225.17890918 1970.25817259 228.46394674 1974.3515625 231.75390625 C1977 234 1977 234 1979.6484375 236.65234375 C1981.96447489 239.11736728 1981.96447489 239.11736728 1985 241 C1989.10322894 243.73548596 1992.41506409 246.24519226 1994 251 C1995.30954583 251.71225833 1996.64734825 252.37345754 1998 253 C2003.00308487 256.8167864 2007.1574323 261.23491439 2011.2109375 266.01953125 C2013.65850567 268.72895715 2016.37186714 271.04631932 2019.1484375 273.41015625 C2022.34903755 276.15835081 2025.25259085 279.02063628 2027.8125 282.375 C2029.68860229 284.62632274 2031.46390758 286.31106924 2033.6875 288.1875 C2039.68959865 293.31615892 2044.79611895 299.29686959 2049.8125 305.375 C2051.93608321 308.01596628 2051.93608321 308.01596628 2054.3125 310.25 C2056 312 2056 312 2056 314 C2056.99 314.33 2057.98 314.66 2059 315 C2060.50323315 316.6292184 2061.9314804 318.32847366 2063.3125 320.0625 C2064.50359375 321.55136719 2064.50359375 321.55136719 2065.71875 323.0703125 C2068.1048739 326.13468395 2070.42767495 329.23909684 2072.734375 332.36328125 C2074.32765384 334.42372518 2076.12995876 336.19028267 2078 338 C2081.57826125 342.21548585 2085.02767876 346.52272379 2088.4375 350.875 C2089.16525635 351.8028833 2089.16525635 351.8028833 2089.90771484 352.74951172 C2092.8027228 356.4486346 2095.67110374 360.16393062 2098.46875 363.9375 C2099.710625 365.61022959 2100.96309793 367.2750874 2102.21875 368.9375 C2103.0128125 369.989375 2103.806875 371.04125 2104.625 372.125 C2105.35976562 373.09695313 2106.09453125 374.06890625 2106.8515625 375.0703125 C2113 383.45454545 2113 383.45454545 2113 386 C2113.66 386 2114.32 386 2115 386 C2115.93774282 387.31978619 2116.86177726 388.6508298 2117.7265625 390.01953125 C2119.81439062 393.26655229 2122.08335213 396.38699755 2124.31640625 399.53515625 C2129 406.39211137 2129 406.39211137 2129 409 C2129.66 409 2130.32 409 2131 409 C2131.556875 409.99 2132.11375 410.98 2132.6875 412 C2134.68531193 415.51586257 2136.83799718 418.91427881 2139.046875 422.30078125 C2140 424 2140 424 2140 426 C2140.66 426 2141.32 426 2142 426 C2142.67154933 427.28913487 2143.33708859 428.58140204 2144 429.875 C2144.37125 430.59429688 2144.7425 431.31359375 2145.125 432.0546875 C2146 434 2146 434 2146 436 C2146.66 436 2147.32 436 2148 436 C2151 441.625 2151 441.625 2151 445 C2151.66 445 2152.32 445 2153 445 C2162 460.93442623 2162 460.93442623 2162 464 C2162.66 464 2163.32 464 2164 464 C2167 469.625 2167 469.625 2167 473 C2167.66 473.33 2168.32 473.66 2169 474 C2170.0703125 475.77734375 2170.0703125 475.77734375 2171.125 477.9375 C2171.47820313 478.64777344 2171.83140625 479.35804688 2172.1953125 480.08984375 C2173 482 2173 482 2173 484 C2173.66 484 2174.32 484 2175 484 C2175.67354499 485.43429001 2176.33859701 486.87257057 2177 488.3125 C2177.37125 489.11300781 2177.7425 489.91351562 2178.125 490.73828125 C2179 493 2179 493 2179 496 C2179.66 496 2180.32 496 2181 496 C2183.01117051 500.32824721 2185.01056622 504.66171819 2187 509 C2187.35191406 509.76441406 2187.70382813 510.52882813 2188.06640625 511.31640625 C2189.30439566 514.08543571 2190 515.92388736 2190 519 C2190.66 519 2191.32 519 2192 519 C2192.50615298 520.26839526 2193.00469099 521.53983102 2193.5 522.8125 C2193.91765625 523.87404297 2193.91765625 523.87404297 2194.34375 524.95703125 C2195 527 2195 527 2195 530 C2195.66 530 2196.32 530 2197 530 C2197.30292969 530.79921875 2197.60585937 531.5984375 2197.91796875 532.421875 C2200.44663566 539.05087256 2203.06514837 545.62837447 2205.81640625 552.16796875 C2207.23995938 555.57416024 2208.60427587 559.00187801 2209.96484375 562.43359375 C2211.13086157 565.32443793 2212.34687915 568.1921833 2213.5625 571.0625 C2215.34119653 575.31070181 2216.92383516 579.56080755 2218.328125 583.9453125 C2219.17104529 586.52308036 2220.15401222 589.04345321 2221.1171875 591.578125 C2224.13667313 599.86166966 2226.84633353 608.27094006 2229.3125 616.734375 C2230.01763288 619.05810835 2230.81524133 621.33587452 2231.625 623.625 C2233.02985149 627.75129154 2233.60585183 631.66437009 2234 636 C2234.66 636 2235.32 636 2236 636 C2236.67363372 638.72761511 2237.33909444 641.456799 2238 644.1875 C2238.19078125 644.95642578 2238.3815625 645.72535156 2238.578125 646.51757812 C2239.51623421 650.42078253 2240.25957208 653.95229795 2240 658 C2240.66 658 2241.32 658 2242 658 C2242.16604736 658.82407349 2242.16604736 658.82407349 2242.33544922 659.66479492 C2242.84377727 662.17337533 2243.35932071 664.68042089 2243.875 667.1875 C2244.04902344 668.05181641 2244.22304687 668.91613281 2244.40234375 669.80664062 C2244.57636719 670.64775391 2244.75039062 671.48886719 2244.9296875 672.35546875 C2245.08679199 673.12528076 2245.24389648 673.89509277 2245.40576172 674.68823242 C2245.9602317 677.06051181 2245.9602317 677.06051181 2247.00219727 679.46118164 C2248.03181697 682.0809554 2248.565233 684.49380619 2249.03515625 687.265625 C2249.20466797 688.23757813 2249.37417969 689.20953125 2249.54882812 690.2109375 C2249.71833984 691.21382812 2249.88785156 692.21671875 2250.0625 693.25 C2250.40399667 695.2558169 2250.74886265 697.26106409 2251.09765625 699.265625 C2251.24726807 700.15024414 2251.39687988 701.03486328 2251.55102539 701.94628906 C2251.80259107 703.98251559 2251.80259107 703.98251559 2253 705 C2253.35715887 706.9088491 2253.65932328 708.82805175 2253.9375 710.75 C2254.19660156 712.49796875 2254.19660156 712.49796875 2254.4609375 714.28125 C2254.8203125 716.76041667 2255.1796875 719.23958333 2255.5390625 721.71875 C2255.79816406 723.46671875 2255.79816406 723.46671875 2256.0625 725.25 C2256.21847656 726.32765625 2256.37445312 727.4053125 2256.53515625 728.515625 C2256.74548185 730.93381428 2256.74548185 730.93381428 2258 732 C2258.43376323 734.93741412 2258.81241393 737.86419817 2259.15625 740.8125 C2259.2634436 741.69655518 2259.37063721 742.58061035 2259.4810791 743.49145508 C2259.94153562 747.29009566 2260.39189139 751.08991928 2260.84326172 754.88964844 C2261.17331392 757.65602569 2261.50839817 760.42176105 2261.84375 763.1875 C2261.94482056 764.05415283 2262.04589111 764.92080566 2262.15002441 765.8137207 C2262.28770064 769.73024001 2262.28770064 769.73024001 2264 773 C2268.3824133 805.62661077 2268.4191179 838.77241708 2268.43479538 871.62500381 C2268.43745348 874.6348234 2268.44568162 877.64458322 2268.45510864 880.65438843 C2268.52449198 907.86945125 2267.46419909 934.8518938 2265.1700325 961.97189713 C2265.01271743 963.84830979 2264.86411395 965.72544733 2264.71627808 967.60263062 C2264.59266403 969.10776718 2264.59266403 969.10776718 2264.46655273 970.64331055 C2264.39919418 971.47855759 2264.33183563 972.31380463 2264.26243591 973.17436218 C2264 975 2264 975 2263 976 C2262.55377393 979.02196852 2262.16306946 982.03329656 2261.80859375 985.06640625 C2261.64424583 986.42934059 2261.64424583 986.42934059 2261.47657776 987.81980896 C2261.12617175 990.73357082 2260.78177659 993.64800818 2260.4375 996.5625 C2260.20156623 998.53325038 2259.96524326 1000.5039542 2259.72851562 1002.47460938 C2259.14781937 1007.3158768 2258.57251439 1012.15775848 2258 1017 C2257.34 1017 2256.68 1017 2256 1017 C2255.95101562 1017.87140625 2255.90203125 1018.7428125 2255.8515625 1019.640625 C2254.68324676 1038.25310327 2254.68324676 1038.25310327 2252.06640625 1045.6328125 C2250.53600708 1050.46506188 2249.743822 1055.38731814 2248.875 1060.375 C2248.60236328 1061.90833984 2248.60236328 1061.90833984 2248.32421875 1063.47265625 C2247.87879601 1065.98108959 2247.43751536 1068.49017754 2247 1071 C2246.34 1071 2245.68 1071 2245 1071 C2244.95101562 1071.61746094 2244.90203125 1072.23492188 2244.8515625 1072.87109375 C2244.12143005 1081.14173204 2242.51340541 1088.65217593 2239.78515625 1096.48046875 C2238.85084313 1099.47863772 2238.1755679 1102.49591693 2237.5 1105.5625 C2236.53246911 1109.90631056 2235.39523988 1113.95401493 2233.7421875 1118.078125 C2231.99323659 1122.60698736 2230.76471882 1127.33067381 2229.42871094 1131.99414062 C2229.00544308 1133.47127258 2228.58041784 1134.94790187 2228.15380859 1136.42407227 C2227.72823716 1137.89736305 2227.30648481 1139.37176414 2226.88916016 1140.84741211 C2225.56829788 1145.41420058 2223.92641008 1149.65401886 2222 1154 C2219.83196468 1159.63029706 2217.87889447 1165.33002981 2216 1171.0625 C2214.46541264 1175.72063721 2212.74160528 1180.25966427 2210.8828125 1184.796875 C2209.80189884 1187.49437635 2208.87492678 1190.22939853 2208 1193 C2207.34 1193 2206.68 1193 2206 1193 C2205.01 1196.96 2204.02 1200.92 2203 1205 C2202.34 1205 2201.68 1205 2201 1205 C2200.9175 1205.639375 2200.835 1206.27875 2200.75 1206.9375 C2199.90660421 1210.38136614 2198.58005203 1213.33461717 2197.1015625 1216.546875 C2196.00678919 1218.98488082 2195.02649133 1221.44522972 2194.0625 1223.9375 C2192.43127967 1228.05319438 2190.56552925 1231.96862813 2188.546875 1235.90625 C2186.89017733 1239.21964534 2185.31411469 1242.56475893 2183.74267578 1245.91918945 C2180.51560797 1252.80524748 2177.25258955 1259.62142363 2173.53125 1266.2578125 C2171.61620773 1269.68730147 2169.7779775 1273.15509326 2167.9375 1276.625 C2160.88501564 1289.88247413 2160.88501564 1289.88247413 2157.375 1295.6875 C2155.76758511 1298.39087959 2154.37975792 1301.1747814 2153 1304 C2152.34 1304 2151.68 1304 2151 1304 C2150.71125 1304.9075 2150.4225 1305.815 2150.125 1306.75 C2149.23468224 1309.32202908 2148.28505587 1311.61346766 2147 1314 C2146.34 1314 2145.68 1314 2145 1314 C2144.690625 1314.94875 2144.38125 1315.8975 2144.0625 1316.875 C2143 1320 2143 1320 2142 1322 C2141.34 1322 2140.68 1322 2140 1322 C2139.8453125 1322.804375 2139.8453125 1322.804375 2139.6875 1323.625 C2138.81180468 1326.65012928 2137.52752839 1329.2504489 2136 1332 C2135.34 1332.33 2134.68 1332.66 2134 1333 C2133.19973239 1334.32508079 2132.45828937 1335.68605766 2131.75 1337.0625 C2129.63488019 1340.98880744 2127.26424732 1344.45094463 2124.53515625 1347.96875 C2122.92964183 1350.09309478 2121.46014977 1352.27355753 2120 1354.5 C2117.58149354 1358.1850401 2115.00711255 1361.70055729 2112.296875 1365.17578125 C2110.96928423 1367.04320562 2109.96987066 1368.9275877 2109 1371 C2108.34 1371 2107.68 1371 2107 1371 C2106.71125 1371.763125 2106.4225 1372.52625 2106.125 1373.3125 C2105 1376 2105 1376 2103 1379 C2102.34 1379 2101.68 1379 2101 1379 C2100.690625 1379.78375 2100.38125 1380.5675 2100.0625 1381.375 C2099 1384 2099 1384 2098 1386 C2097.34 1386 2096.68 1386 2096 1386 C2095.74605469 1386.56332031 2095.49210937 1387.12664062 2095.23046875 1387.70703125 C2093.83570184 1390.30616832 2092.18226789 1392.40630971 2090.3125 1394.6875 C2089.24902344 1395.99847656 2089.24902344 1395.99847656 2088.1640625 1397.3359375 C2087.44992188 1398.21507812 2086.73578125 1399.09421875 2086 1400 C2081.38900038 1405.7175552 2081.38900038 1405.7175552 2077.3125 1411.8125 C2075.81239617 1414.31267305 2074.09321817 1415.96492678 2072 1418 C2068.55892611 1421.79871359 2065.24249095 1425.70594666 2061.94921875 1429.6328125 C2061.41232422 1430.26912598 2060.87542969 1430.90543945 2060.32226562 1431.56103516 C2059.23920798 1432.84562951 2058.16100471 1434.13433361 2057.08789062 1435.42724609 C2055.76836842 1436.98896447 2054.38877594 1438.49953191 2053 1440 C2052.34 1440 2051.68 1440 2051 1440 C2050.75507813 1440.56203125 2050.51015625 1441.1240625 2050.2578125 1441.703125 C2046.00330438 1449.47222678 2038.28839464 1455.83599119 2032 1462 C2031.113125 1462.886875 2030.22625 1463.77375 2029.3125 1464.6875 C2013.5 1480.5 2013.5 1480.5 2011.6875 1482.30859375 C2010.28218289 1483.71716391 2008.889469 1485.13829427 2007.5 1486.5625 C2004.98486325 1489.01475834 2002.36470574 1491.26918418 1999.68359375 1493.53515625 C1998.25635351 1494.7769546 1996.90023649 1496.09976351 1995.5625 1497.4375 C1991.22519335 1501.77480665 1986.5548414 1505.73823566 1981.8125 1509.625 C1978.99479348 1511.92652729 1978.99479348 1511.92652729 1976.625 1514.4375 C1973.93218198 1517.0662033 1971.1244513 1519.2020023 1968.0625 1521.375 C1965.87324282 1523.03146823 1965.87324282 1523.03146823 1963.6640625 1525.359375 C1960.73438538 1528.26327783 1957.64109061 1530.74220572 1954.375 1533.25 C1949.94302009 1536.68623849 1945.56196451 1540.16283864 1941.25 1543.75 C1936.34587301 1547.78531386 1931.24843426 1551.42974848 1926 1555 C1924.18492037 1556.24625126 1922.37237512 1557.49620245 1920.5625 1558.75 C1919.75941406 1559.30171875 1918.95632813 1559.8534375 1918.12890625 1560.421875 C1916.0075378 1561.91162616 1916.0075378 1561.91162616 1914.40234375 1563.609375 C1912.29103652 1565.703039 1909.64491424 1566.67754288 1907 1568 C1905.9805881 1568.98020375 1904.97753644 1569.97803008 1904 1571 C1902.66666667 1571.66666667 1901.33333333 1572.33333333 1900 1573 C1899.54625 1573.474375 1899.0925 1573.94875 1898.625 1574.4375 C1896.38878993 1576.58770199 1893.76364114 1577.61817943 1891 1579 C1890.505 1579.515625 1890.01 1580.03125 1889.5 1580.5625 C1887.31845149 1582.65315066 1884.85944851 1583.1739371 1882 1584 C1882 1584.66 1882 1585.32 1882 1586 C1881.43410156 1586.26554687 1880.86820313 1586.53109375 1880.28515625 1586.8046875 C1879.55167969 1587.15789062 1878.81820312 1587.51109375 1878.0625 1587.875 C1877.33160156 1588.22304687 1876.60070313 1588.57109375 1875.84765625 1588.9296875 C1873.83667541 1589.8684977 1873.83667541 1589.8684977 1873 1592 C1871.29296875 1592.96484375 1871.29296875 1592.96484375 1869.1875 1593.9375 C1866.85802078 1595.05051938 1864.93287968 1596.05132731 1862.875 1597.625 C1860.42438174 1599.42212006 1857.89538953 1600.144544 1855 1601 C1855 1601.66 1855 1602.32 1855 1603 C1853.5437455 1603.67119549 1852.08492133 1604.33681807 1850.625 1605 C1849.81289062 1605.37125 1849.00078125 1605.7425 1848.1640625 1606.125 C1846 1607 1846 1607 1844 1607 C1844 1607.66 1844 1608.32 1844 1609 C1840.11008386 1611.15669221 1836.21212401 1613.29841848 1832.3125 1615.4375 C1831.20970703 1616.04916016 1830.10691406 1616.66082031 1828.97070312 1617.29101562 C1827.90400391 1617.87431641 1826.83730469 1618.45761719 1825.73828125 1619.05859375 C1824.75899658 1619.59798584 1823.77971191 1620.13737793 1822.77075195 1620.69311523 C1820.13352783 1621.93701873 1817.87183597 1622.57598591 1815 1623 C1815 1623.66 1815 1624.32 1815 1625 C1811.35518051 1626.75211712 1807.70896043 1628.50130085 1804.0625 1630.25 C1803.04091797 1630.74113281 1802.01933594 1631.23226563 1800.96679688 1631.73828125 C1783.72734375 1640 1783.72734375 1640 1781 1640 C1781 1640.66 1781 1641.32 1781 1642 C1780.16597656 1642.31453125 1779.33195312 1642.6290625 1778.47265625 1642.953125 C1772.49020714 1645.22823737 1766.58251585 1647.54268583 1760.8046875 1650.30078125 C1759 1651 1759 1651 1756 1651 C1756 1651.66 1756 1652.32 1756 1653 C1755.10539062 1653.31453125 1754.21078125 1653.6290625 1753.2890625 1653.953125 C1746.78461385 1656.25533924 1740.34110374 1658.59949706 1733.98828125 1661.30078125 C1732 1662 1732 1662 1729 1662 C1729 1662.66 1729 1663.32 1729 1664 C1726.89748139 1664.67184618 1724.79292237 1665.33730968 1722.6875 1666 C1721.51574219 1666.37125 1720.34398437 1666.7425 1719.13671875 1667.125 C1716 1668 1716 1668 1713 1668 C1713 1668.66 1713 1669.32 1713 1670 C1711.4188708 1670.50692692 1709.83498617 1671.00526443 1708.25 1671.5 C1707.36828125 1671.7784375 1706.4865625 1672.056875 1705.578125 1672.34375 C1703 1673 1703 1673 1699 1673 C1699 1673.66 1699 1674.32 1699 1675 C1696.75194998 1675.67321284 1694.50147776 1676.33834123 1692.25 1677 C1690.99703125 1677.37125 1689.7440625 1677.7425 1688.453125 1678.125 C1685 1679 1685 1679 1681 1679 C1681 1679.66 1681 1680.32 1681 1681 C1678.41806023 1681.67250524 1675.83467929 1682.33817901 1673.25 1683 C1672.52039062 1683.19078125 1671.79078125 1683.3815625 1671.0390625 1683.578125 C1667.55428354 1684.46515964 1664.61876278 1685 1661 1685 C1661 1685.66 1661 1686.32 1661 1687 C1658.91798472 1687.50546036 1656.83432933 1688.00416835 1654.75 1688.5 C1653.58984375 1688.7784375 1652.4296875 1689.056875 1651.234375 1689.34375 C1648 1690 1648 1690 1644 1690 C1644 1690.66 1644 1691.32 1644 1692 C1642.35 1692 1640.7 1692 1639 1692 C1639 1753.71 1639 1815.42 1639 1879 C1798.39 1879 1957.78 1879 2122 1879 C2122 2014.63 2122 2150.26 2122 2290 C1962.61 2290 1803.22 2290 1639 2290 C1639 2434.54 1639 2579.08 1639 2728 C1493.8 2728 1348.6 2728 1199 2728 C1199 2583.79 1199 2439.58 1199 2291 C803.33 2290.67 407.66 2290.34 0 2290 C0 1534.3 0 778.6 0 0 Z M1391.9375 447.9375 C1391.19556396 447.98088501 1390.45362793 448.02427002 1389.68920898 448.06896973 C1387.5931189 448.19450158 1385.4977107 448.32781716 1383.40234375 448.46484375 C1382.19054443 448.543396 1380.97874512 448.62194824 1379.73022461 448.70288086 C1377.08934095 448.70184019 1377.08934095 448.70184019 1376 450 C1373.70824312 450.33619257 1371.40783751 450.613666 1369.10546875 450.8671875 C1367.6594828 451.03235599 1366.21352004 451.19772766 1364.76757812 451.36328125 C1362.49519229 451.61844167 1360.22259087 451.87116439 1357.94946289 452.11962891 C1349.66159991 453.03207096 1341.65906399 454.11429324 1333.58911133 456.29980469 C1330.00229477 457.26981788 1326.39712355 457.97833709 1322.75 458.6875 C1321.46609375 458.93886719 1320.1821875 459.19023438 1318.859375 459.44921875 C1317.91578125 459.63097656 1316.9721875 459.81273437 1316 460 C1316 460.66 1316 461.32 1316 462 C1315.40574219 462.03738281 1314.81148437 462.07476563 1314.19921875 462.11328125 C1304.35218035 462.89430607 1295.29208358 465.79459132 1286 469 C1284 469.66666667 1282 470.33333333 1280 471 C1280 471.66 1280 472.32 1280 473 C1279.030625 473.103125 1278.06125 473.20625 1277.0625 473.3125 C1269.75901289 474.36842585 1262.95259364 477.35274737 1256.1640625 480.1328125 C1254.46498371 480.81367079 1252.73648872 481.42117043 1251 482 C1251 482.66 1251 483.32 1251 484 C1249.84371094 484.30744141 1249.84371094 484.30744141 1248.6640625 484.62109375 C1247.66117188 484.89050781 1246.65828125 485.15992188 1245.625 485.4375 C1244.62726563 485.70433594 1243.62953125 485.97117187 1242.6015625 486.24609375 C1240.04582299 486.90184356 1240.04582299 486.90184356 1238 488 C1238 488.66 1238 489.32 1238 490 C1237.319375 490.103125 1236.63875 490.20625 1235.9375 490.3125 C1232.37084011 491.14725019 1229.33777806 492.49472754 1226 494 C1226 494.66 1226 495.32 1226 496 C1225.278125 496.12375 1224.55625 496.2475 1223.8125 496.375 C1221.04278106 496.9904931 1218.6029646 497.88444374 1216 499 C1216 499.66 1216 500.32 1216 501 C1214.69289063 501.39445312 1214.69289063 501.39445312 1213.359375 501.796875 C1210.02878923 502.98968944 1207.27865515 504.43280691 1204.25 506.25 C1202.703125 507.17619141 1202.703125 507.17619141 1201.125 508.12109375 C1199.578125 509.05115234 1199.578125 509.05115234 1198 510 C1197.01 510.56847656 1196.02 511.13695312 1195 511.72265625 C1194.0925 512.24730469 1193.185 512.77195312 1192.25 513.3125 C1191.43015625 513.78300781 1190.6103125 514.25351562 1189.765625 514.73828125 C1189.18296875 515.15464844 1188.6003125 515.57101562 1188 516 C1188 516.66 1188 517.32 1188 518 C1187.4225 518.12375 1186.845 518.2475 1186.25 518.375 C1183.97664233 519.00648824 1182.0746471 519.88858191 1180 521 C1180 521.66 1180 522.32 1180 523 C1179.28585937 523.25136719 1178.57171875 523.50273438 1177.8359375 523.76171875 C1174.73234213 525.1168699 1172.33304539 526.78340582 1169.625 528.8125 C1166.38840781 531.22571014 1163.14727314 533.59974745 1159.8125 535.875 C1158.884375 536.57625 1157.95625 537.2775 1157 538 C1157 538.66 1157 539.32 1157 540 C1156.29875 540.226875 1155.5975 540.45375 1154.875 540.6875 C1151.40300749 542.27254006 1148.82274529 544.49165249 1146 547 C1144.77289798 548.06488384 1143.54370749 549.12736555 1142.3125 550.1875 C1141.75175781 550.67605469 1141.19101563 551.16460938 1140.61328125 551.66796875 C1139 553 1139 553 1136 555 C1136 555.66 1136 556.32 1136 557 C1135.0409375 557.4021875 1135.0409375 557.4021875 1134.0625 557.8125 C1131.66868314 558.88667752 1131.66868314 558.88667752 1131 562 C1129.68838586 562.70844235 1128.35061282 563.3690743 1127 564 C1125.56909175 565.10171971 1124.17331861 566.25029427 1122.8125 567.4375 C1122.11769531 568.03433594 1121.42289063 568.63117188 1120.70703125 569.24609375 C1118.76139663 570.99071085 1118.76139663 570.99071085 1118 574 C1116.66666667 574.66666667 1115.33333333 575.33333333 1114 576 C1110.04480704 579.52760454 1106.96803998 583.56471918 1103.84375 587.81640625 C1101.78588035 590.25358662 1099.49250732 592.01767777 1097 594 C1095.78471719 595.37518844 1094.61895722 596.79535561 1093.5 598.25 C1090.92463556 601.55554439 1088.32691284 604.83503175 1085.6640625 608.0703125 C1085.08076172 608.78026367 1084.49746094 609.49021484 1083.89648438 610.22167969 C1082.73096989 611.63841587 1081.56306353 613.05318826 1080.39257812 614.46582031 C1079.85310547 615.12420898 1079.31363281 615.78259766 1078.7578125 616.4609375 C1078.2745752 617.04665527 1077.79133789 617.63237305 1077.29345703 618.23583984 C1075.94419359 620.07611497 1075.0012776 621.95477443 1074 624 C1073.56042969 624.43183594 1073.12085938 624.86367188 1072.66796875 625.30859375 C1070.10272155 627.90988657 1068.26819183 630.99639941 1066.3125 634.0625 C1065.89677734 634.69994141 1065.48105469 635.33738281 1065.05273438 635.99414062 C1062.76882357 639.23567436 1062.76882357 639.23567436 1062 643 C1061.01 643.33 1060.02 643.66 1059 644 C1057.48337763 646.29378259 1056.12947819 648.53455064 1054.8125 650.9375 C1054.44447266 651.58396484 1054.07644531 652.23042969 1053.69726562 652.89648438 C1051.6768353 656.24310054 1051.6768353 656.24310054 1051 660 C1050.34 660 1049.68 660 1049 660 C1046.64089647 664.2637281 1046.64089647 664.2637281 1046 669 C1045.34 669.33 1044.68 669.66 1044 670 C1041.71996593 673.28324906 1040.56481614 676.04628701 1040 680 C1039.34 680 1038.68 680 1038 680 C1037.32645501 681.43429001 1036.66140299 682.87257057 1036 684.3125 C1035.62875 685.11300781 1035.2575 685.91351562 1034.875 686.73828125 C1033.81959333 689.06213959 1033.81959333 689.06213959 1034 692 C1033.34 692 1032.68 692 1032 692 C1025.82352682 703.56330308 1025.82352682 703.56330308 1023 716 C1022.34 716 1021.68 716 1021 716 C1020.67386719 717.00160156 1020.34773438 718.00320313 1020.01171875 719.03515625 C1019.57047685 720.3776582 1019.12906129 721.72010307 1018.6875 723.0625 C1018.47416016 723.71927734 1018.26082031 724.37605469 1018.04101562 725.05273438 C1016.57985444 729.4798347 1014.84650939 733.7157105 1013 738 C1010.09408466 746.03556467 1007.57831705 754.0802554 1005.67578125 762.4140625 C1005 765 1005 765 1004.04541016 767.31958008 C1002.18677832 772.08509127 1001.20745418 777.08598085 1000.0625 782.0625 C999.79671143 783.21032959 999.53092285 784.35815918 999.25708008 785.54077148 C997.41442734 793.69172694 995.94375433 801.83563694 994.84985352 810.11938477 C994.08371983 815.91628017 994.08371983 815.91628017 993 817 C992.71024629 818.94370123 992.48302778 820.89676905 992.28125 822.8515625 C992.15403564 824.08382568 992.02682129 825.31608887 991.89575195 826.58569336 C991.76306216 827.932053 991.63116328 829.27849079 991.5 830.625 C991.43307953 831.30337921 991.36615906 831.98175842 991.29721069 832.68069458 C990.08081363 845.10999097 989.2704839 857.51265989 989 870 C988.97808594 870.86947266 988.95617188 871.73894531 988.93359375 872.63476562 C988.64541075 885.5741825 989.17946891 898.4579227 989.875 911.375 C989.91420563 912.12478119 989.95341125 912.87456238 989.99380493 913.64706421 C990.43774706 921.97197737 991.06007871 930.25517929 992.0078125 938.5390625 C992.090383 939.27345551 992.17295349 940.00784851 992.25802612 940.76449585 C992.41663352 944.17554823 992.41663352 944.17554823 994 947 C994.29792279 948.5547079 994.54131405 950.1199234 994.76171875 951.6875 C994.90818848 952.68491211 995.0546582 953.68232422 995.20556641 954.70996094 C995.36460449 955.79567383 995.52364258 956.88138672 995.6875 958 C997.11604617 967.35419098 998.89981005 976.55227578 1001.125 985.75 C1001.37854248 986.801875 1001.63208496 987.85375 1001.89331055 988.9375 C1003.01199908 993.45214136 1004.2489472 997.68792834 1006 1002 C1007.0211662 1005.69190856 1007.95986125 1009.40058702 1008.90234375 1013.11328125 C1009.99791334 1017.18730244 1011.47887705 1021.06926668 1013 1025 C1013.5991824 1026.6096271 1014.19542037 1028.22035263 1014.7890625 1029.83203125 C1015.09070312 1030.64994141 1015.39234375 1031.46785156 1015.703125 1032.31054688 C1016.00734375 1033.13619141 1016.3115625 1033.96183594 1016.625 1034.8125 C1016.93695312 1035.65748047 1017.24890625 1036.50246094 1017.5703125 1037.37304688 C1017.869375 1038.18451172 1018.1684375 1038.99597656 1018.4765625 1039.83203125 C1018.74549316 1040.56139893 1019.01442383 1041.2907666 1019.29150391 1042.04223633 C1019.88632308 1043.68588035 1020.44724549 1045.34173646 1021 1047 C1021.66 1047 1022.32 1047 1023 1047 C1023.08121094 1047.79664063 1023.16242187 1048.59328125 1023.24609375 1049.4140625 C1024.22440718 1054.06738752 1026.07625433 1058.07318296 1028.0625 1062.375 C1028.62807617 1063.62216797 1028.62807617 1063.62216797 1029.20507812 1064.89453125 C1030.13043356 1066.93265588 1031.0621837 1068.9675867 1032 1071 C1032.66 1071 1033.32 1071 1034 1071 C1034.103125 1071.680625 1034.20625 1072.36125 1034.3125 1073.0625 C1035.14725019 1076.62915989 1036.49472754 1079.66222194 1038 1083 C1038.66 1083 1039.32 1083 1040 1083 C1040.103125 1083.70125 1040.20625 1084.4025 1040.3125 1085.125 C1041.09359003 1088.39137647 1042.42058743 1091.0471852 1044 1094 C1044.66 1094 1045.32 1094 1046 1094 C1046.12375 1094.7425 1046.2475 1095.485 1046.375 1096.25 C1046.95486701 1098.80141485 1047.73708739 1100.7267573 1049 1103 C1049.66 1103 1050.32 1103 1051 1103 C1051.2578125 1103.86882813 1051.515625 1104.73765625 1051.78125 1105.6328125 C1053.02126202 1109.05874315 1054.54031535 1111.8109168 1056.5 1114.875 C1057.1084375 1115.84179688 1057.716875 1116.80859375 1058.34375 1117.8046875 C1058.8903125 1118.52914062 1059.436875 1119.25359375 1060 1120 C1060.66 1120 1061.32 1120 1062 1120 C1062.28875 1120.9075 1062.5775 1121.815 1062.875 1122.75 C1064.18627576 1126.53812998 1065.15171431 1129.15171431 1068 1132 C1069.94559591 1133.94559591 1070.82147723 1135.55877425 1072 1138 C1072.66 1138.33 1073.32 1138.66 1074 1139 C1074.39960937 1139.67804687 1074.79921875 1140.35609375 1075.2109375 1141.0546875 C1077.64715598 1145.06540525 1080.61752817 1148.53176593 1083.625 1152.125 C1084.88314824 1153.63643934 1086.14096027 1155.1481586 1087.3984375 1156.66015625 C1088.31834473 1157.76447998 1088.31834473 1157.76447998 1089.25683594 1158.89111328 C1090.80693277 1160.76642651 1092.33585334 1162.65546363 1093.8515625 1164.55859375 C1094.64304687 1165.54988281 1095.43453125 1166.54117188 1096.25 1167.5625 C1096.93578125 1168.43003906 1097.6215625 1169.29757812 1098.328125 1170.19140625 C1098.87984375 1170.78824219 1099.4315625 1171.38507812 1100 1172 C1100.66 1172 1101.32 1172 1102 1172 C1102.27199219 1172.58910156 1102.54398438 1173.17820312 1102.82421875 1173.78515625 C1105.87165565 1179.52567691 1111.86331485 1186.95443828 1118 1189 C1118.29132813 1189.5878125 1118.58265625 1190.175625 1118.8828125 1190.78125 C1120.36577831 1193.72644083 1122.39011031 1195.34692051 1124.875 1197.5 C1127.40268882 1199.70323921 1129.86967349 1201.86457174 1132.1953125 1204.28125 C1133.82601473 1206.22988506 1133.82601473 1206.22988506 1136 1206 C1136.33 1206.99 1136.66 1207.98 1137 1209 C1137.804375 1209.309375 1138.60875 1209.61875 1139.4375 1209.9375 C1142.52921144 1211.21942913 1142.63533604 1212.08871689 1144 1215 C1145.3153341 1215.70151152 1146.65117592 1216.36525925 1148 1217 C1148.57105469 1217.57621094 1149.14210938 1218.15242188 1149.73046875 1218.74609375 C1152.44605103 1221.44298011 1155.40006469 1223.74710645 1158.4375 1226.0625 C1158.99759766 1226.49626953 1159.55769531 1226.93003906 1160.13476562 1227.37695312 C1163.31437826 1229.81453247 1166.54893122 1231.97141477 1170 1234 C1171 1235 1172 1236 1173 1237 C1179.97818082 1242.38780621 1179.97818082 1242.38780621 1188 1245 C1188.33 1245.99 1188.66 1246.98 1189 1248 C1190.51976692 1249.18777662 1190.51976692 1249.18777662 1192.421875 1250.15625 C1193.11796875 1250.53910156 1193.8140625 1250.92195313 1194.53125 1251.31640625 C1195.2634375 1251.70699219 1195.995625 1252.09757812 1196.75 1252.5 C1198.18258697 1253.28070837 1199.61488524 1254.06194677 1201.046875 1254.84375 C1201.72983643 1255.21266357 1202.41279785 1255.58157715 1203.11645508 1255.96166992 C1204.70339338 1256.83649152 1206.26008186 1257.76586339 1207.80859375 1258.70703125 C1210.43400105 1260.25606836 1213.09004883 1261.12024732 1216 1262 C1216 1262.66 1216 1263.32 1216 1264 C1220.81209901 1266.29045014 1220.81209901 1266.29045014 1226 1267 C1226 1267.66 1226 1268.32 1226 1269 C1227.43429001 1269.67354499 1228.87257057 1270.33859701 1230.3125 1271 C1231.11300781 1271.37125 1231.91351562 1271.7425 1232.73828125 1272.125 C1235.06213959 1273.18040667 1235.06213959 1273.18040667 1238 1273 C1238 1273.66 1238 1274.32 1238 1275 C1239.26839526 1275.50615298 1240.53983102 1276.00469099 1241.8125 1276.5 C1242.52019531 1276.7784375 1243.22789062 1277.056875 1243.95703125 1277.34375 C1246.11841216 1278.1529162 1246.11841216 1278.1529162 1249 1278 C1249 1278.66 1249 1279.32 1249 1280 C1249.94101563 1280.32613281 1250.88203125 1280.65226562 1251.8515625 1280.98828125 C1253.09679688 1281.42527344 1254.34203125 1281.86226562 1255.625 1282.3125 C1256.85476563 1282.74175781 1258.08453125 1283.17101563 1259.3515625 1283.61328125 C1263 1285 1263 1285 1265.84375 1286.45703125 C1270.06241736 1288.51937482 1274.41512789 1289.92447084 1278.875 1291.375 C1279.80683105 1291.68099121 1280.73866211 1291.98698242 1281.69873047 1292.30224609 C1284.46398764 1293.20724797 1287.23164193 1294.10453555 1290 1295 C1290.73669922 1295.24041016 1291.47339844 1295.48082031 1292.23242188 1295.72851562 C1306.01216522 1300.2158672 1320.06399666 1304.60830679 1334.45703125 1306.54296875 C1337 1307 1337 1307 1339.62109375 1307.94921875 C1344.42584935 1309.44341442 1349.26768894 1309.99660041 1354.25 1310.625 C1355.72919922 1310.82609375 1355.72919922 1310.82609375 1357.23828125 1311.03125 C1363.52864381 1311.84344438 1369.65969414 1312.1727271 1376 1312 C1376 1312.66 1376 1313.32 1376 1314 C1407.5545922 1316.13890872 1438.4454078 1316.13890872 1470 1314 C1470 1313.34 1470 1312.68 1470 1312 C1470.81960205 1312.03480469 1470.81960205 1312.03480469 1471.65576172 1312.0703125 C1479.60496968 1312.25152791 1487.27404895 1311.152719 1495.125 1310 C1496.47647151 1309.80665458 1497.82803369 1309.61394181 1499.1796875 1309.421875 C1502.4540675 1308.95410643 1505.72739571 1308.48000749 1509 1308 C1509 1307.34 1509 1306.68 1509 1306 C1509.73863281 1305.96261719 1510.47726562 1305.92523437 1511.23828125 1305.88671875 C1517.29902139 1305.49396431 1522.82819613 1304.69170248 1528.64453125 1302.96484375 C1533.29611042 1301.62731167 1537.98988047 1300.47620603 1542.6875 1299.3125 C1543.59822266 1299.08594727 1544.50894531 1298.85939453 1545.44726562 1298.62597656 C1547.63124196 1298.08289334 1549.81548514 1297.5409122 1552 1297 C1552 1296.34 1552 1295.68 1552 1295 C1553.7015625 1294.8453125 1553.7015625 1294.8453125 1555.4375 1294.6875 C1562.33176022 1293.82419757 1568.68090161 1291.15343927 1575.13671875 1288.6953125 C1577.73467692 1287.72584383 1580.36314297 1286.85697853 1583 1286 C1583 1285.34 1583 1284.68 1583 1284 C1583.59167969 1283.87882812 1584.18335938 1283.75765625 1584.79296875 1283.6328125 C1589.03803585 1282.73255357 1593.02439661 1281.79543379 1597 1280 C1597 1279.34 1597 1278.68 1597 1278 C1597.62648438 1277.86722656 1598.25296875 1277.73445313 1598.8984375 1277.59765625 C1599.71570312 1277.42105469 1600.53296875 1277.24445312 1601.375 1277.0625 C1602.18710938 1276.88847656 1602.99921875 1276.71445313 1603.8359375 1276.53515625 C1606.029463 1276.07669307 1606.029463 1276.07669307 1608 1275 C1608 1274.34 1608 1273.68 1608 1273 C1608.64324219 1272.91878906 1609.28648437 1272.83757813 1609.94921875 1272.75390625 C1614.185217 1271.70711027 1617.89821985 1269.83722188 1621.8125 1267.9375 C1622.60076172 1267.56044922 1623.38902344 1267.18339844 1624.20117188 1266.79492188 C1626.13652473 1265.86829839 1628.06859549 1264.93482533 1630 1264 C1630 1263.34 1630 1262.68 1630 1262 C1630.93972656 1261.69255859 1630.93972656 1261.69255859 1631.8984375 1261.37890625 C1632.71570312 1261.10949219 1633.53296875 1260.84007812 1634.375 1260.5625 C1635.59316406 1260.16224609 1635.59316406 1260.16224609 1636.8359375 1259.75390625 C1639.01031799 1259.04820271 1639.01031799 1259.04820271 1641 1258 C1641 1257.34 1641 1256.68 1641 1256 C1641.86882813 1255.7421875 1642.73765625 1255.484375 1643.6328125 1255.21875 C1647.05874315 1253.97873798 1649.8109168 1252.45968465 1652.875 1250.5 C1653.84179688 1249.8915625 1654.80859375 1249.283125 1655.8046875 1248.65625 C1656.52914062 1248.1096875 1657.25359375 1247.563125 1658 1247 C1658 1246.34 1658 1245.68 1658 1245 C1658.804375 1244.8453125 1658.804375 1244.8453125 1659.625 1244.6875 C1662.62502044 1243.81907303 1665.2379535 1242.44379704 1668 1241 C1668 1240.34 1668 1239.68 1668 1239 C1668.78375 1238.690625 1669.5675 1238.38125 1670.375 1238.0625 C1672.92330128 1237.07124962 1672.92330128 1237.07124962 1675 1236 C1675 1235.34 1675 1234.68 1675 1234 C1675.763125 1233.71125 1676.52625 1233.4225 1677.3125 1233.125 C1680.15029308 1232.03730987 1680.15029308 1232.03730987 1683 1230 C1683 1229.34 1683 1228.68 1683 1228 C1683.72574219 1227.7421875 1684.45148437 1227.484375 1685.19921875 1227.21875 C1688.12047667 1225.94757501 1690.30872649 1224.45983598 1692.8125 1222.5 C1693.60269531 1221.8915625 1694.39289062 1221.283125 1695.20703125 1220.65625 C1695.79871094 1220.1096875 1696.39039063 1219.563125 1697 1219 C1697 1218.34 1697 1217.68 1697 1217 C1697.78375 1216.7525 1698.5675 1216.505 1699.375 1216.25 C1702.11976952 1215.27318667 1702.11976952 1215.27318667 1703 1213 C1704.38929077 1210.22141846 1706.18314433 1210.08340603 1709 1209 C1709.33 1208.01 1709.66 1207.02 1710 1206 C1711.31180345 1205.29190825 1712.64926542 1204.63066498 1714 1204 C1718.63478539 1200.34192883 1722.88306983 1196.22527043 1727 1192 C1727.54011719 1191.48179687 1728.08023438 1190.96359375 1728.63671875 1190.4296875 C1730.12809642 1188.9904559 1731.56814082 1187.49845729 1733 1186 C1733 1185.34 1733 1184.68 1733 1184 C1733.57234375 1183.76410156 1734.1446875 1183.52820312 1734.734375 1183.28515625 C1737.51127573 1181.70998325 1739.15540326 1179.84477935 1741.25 1177.4375 C1742.02730469 1176.54933594 1742.80460937 1175.66117188 1743.60546875 1174.74609375 C1744.39566406 1173.83988281 1745.18585937 1172.93367188 1746 1172 C1746.77988281 1171.14535156 1747.55976563 1170.29070313 1748.36328125 1169.41015625 C1749.08902344 1168.61480469 1749.81476562 1167.81945313 1750.5625 1167 C1751.22378906 1166.278125 1751.88507812 1165.55625 1752.56640625 1164.8125 C1754.20678551 1163.12371321 1754.20678551 1163.12371321 1754 1161 C1754.99 1160.67 1755.98 1160.34 1757 1160 C1758.03789581 1158.35666496 1759.03567924 1156.68756133 1760 1155 C1760.99288283 1153.99293313 1761.99400136 1152.99396516 1763 1152 C1764.23144177 1150.54001554 1765.43863275 1149.05934208 1766.625 1147.5625 C1767.23601563 1146.80066406 1767.84703125 1146.03882813 1768.4765625 1145.25390625 C1770.10918377 1143.12603099 1770.10918377 1143.12603099 1770.5234375 1140.77734375 C1770.68070313 1140.19082031 1770.83796875 1139.60429688 1771 1139 C1771.99 1138.67 1772.98 1138.34 1774 1138 C1778.09042303 1133.52780416 1781.07262302 1128.26927856 1784 1123 C1784.74041236 1121.88938145 1785.49008185 1120.78486432 1786.25 1119.6875 C1788.18189106 1117.25517529 1788.18189106 1117.25517529 1788 1115 C1788.66 1114.67 1789.32 1114.34 1790 1114 C1791.11935716 1112.42015993 1791.11935716 1112.42015993 1792.125 1110.5625 C1792.47820313 1109.94503906 1792.83140625 1109.32757812 1793.1953125 1108.69140625 C1794.14320325 1107.01117282 1794.14320325 1107.01117282 1794 1105 C1794.66 1105 1795.32 1105 1796 1105 C1796.67408308 1103.73308493 1797.33900497 1102.46129251 1798 1101.1875 C1798.37125 1100.47980469 1798.7425 1099.77210938 1799.125 1099.04296875 C1800.19685358 1096.91079271 1800.19685358 1096.91079271 1800 1094 C1800.99 1093.67 1801.98 1093.34 1803 1093 C1804.22969878 1089.48809191 1804.22969878 1089.48809191 1805 1086 C1805.66 1086 1806.32 1086 1807 1086 C1807.6708712 1084.3767313 1808.33657029 1082.75132422 1809 1081.125 C1809.37125 1080.22007812 1809.7425 1079.31515625 1810.125 1078.3828125 C1811.11490226 1076.11016142 1811.11490226 1076.11016142 1811 1074 C1811.66 1074 1812.32 1074 1813 1074 C1813.31453125 1073.23816406 1813.6290625 1072.47632813 1813.953125 1071.69140625 C1815.92262959 1066.93967981 1817.89159713 1062.19206048 1820 1057.5 C1821.58548642 1053.94721614 1823.15281475 1050.38756907 1824.6875 1046.8125 C1825.10386719 1045.84957031 1825.52023437 1044.88664062 1825.94921875 1043.89453125 C1827.02707397 1040.92542078 1827.57878062 1038.1244295 1828 1035 C1828.66 1035 1829.32 1035 1830 1035 C1830.50692692 1033.4188708 1831.00526443 1031.83498617 1831.5 1030.25 C1831.7784375 1029.36828125 1832.056875 1028.4865625 1832.34375 1027.578125 C1833.16445285 1024.79732471 1833.16445285 1024.79732471 1833 1021 C1833.66 1021 1834.32 1021 1835 1021 C1835.67286212 1018.58490559 1836.33846012 1016.16819644 1837 1013.75 C1837.19078125 1013.06808594 1837.3815625 1012.38617187 1837.578125 1011.68359375 C1838.49957044 1008.29399088 1839 1005.54221024 1839 1002 C1839.66 1002 1840.32 1002 1841 1002 C1841.26554687 1000.77023437 1841.53109375 999.54046875 1841.8046875 998.2734375 C1842.16128691 996.64058755 1842.51806733 995.00777713 1842.875 993.375 C1843.04902344 992.56675781 1843.22304687 991.75851562 1843.40234375 990.92578125 C1844.14822182 987.52789228 1844.91870783 984.2411052 1846.03125 980.94140625 C1847.2653998 977.19416916 1847.95235076 973.44396065 1848.625 969.5625 C1848.82609375 968.47485352 1848.82609375 968.47485352 1849.03125 967.36523438 C1849.82832911 962.83896371 1850.13318638 958.59493002 1850 954 C1850.66 954 1851.32 954 1852 954 C1854.37609342 937.34591833 1855.59559286 920.77214531 1856.35302734 903.97973633 C1856.40828583 902.79919426 1856.40828583 902.79919426 1856.46466064 901.59480286 C1856.53376541 900.10199418 1856.59851894 898.6089761 1856.65838623 897.11576843 C1856.88855418 892.11144582 1856.88855418 892.11144582 1858 891 C1858.09860131 889.59651265 1858.13078937 888.18819523 1858.1328125 886.78125 C1858.13410156 885.93175781 1858.13539063 885.08226562 1858.13671875 884.20703125 C1858.13285156 883.31371094 1858.12898438 882.42039062 1858.125 881.5 C1858.12886719 880.60667969 1858.13273437 879.71335937 1858.13671875 878.79296875 C1858.13542969 877.94347656 1858.13414062 877.09398437 1858.1328125 876.21875 C1858.13168457 875.43435547 1858.13055664 874.64996094 1858.12939453 873.84179688 C1858.20107442 871.98247012 1858.20107442 871.98247012 1857 871 C1856.8041965 868.55686284 1856.66844668 866.13515892 1856.5703125 863.6875 C1856.4982934 862.13173556 1856.42584739 860.57599083 1856.35302734 859.02026367 C1856.31602722 858.19996674 1856.2790271 857.3796698 1856.24090576 856.53451538 C1855.51108976 840.57560315 1854.25797101 824.8261595 1852 809 C1851.34 809 1850.68 809 1850 809 C1849.96261719 808.2471875 1849.92523437 807.494375 1849.88671875 806.71875 C1849.48483678 800.22559824 1848.75064843 793.89009176 1847.5625 787.5 C1847.44028076 786.83033203 1847.31806152 786.16066406 1847.19213867 785.47070312 C1846.4744492 781.76613839 1845.40644517 778.4860139 1844 775 C1843.4176812 772.57189089 1842.8778743 770.13329772 1842.375 767.6875 C1842.11460937 766.43324219 1841.85421875 765.17898438 1841.5859375 763.88671875 C1841.39257812 762.93410156 1841.19921875 761.98148438 1841 761 C1840.34 761 1839.68 761 1839 761 C1838.8453125 759.3603125 1838.8453125 759.3603125 1838.6875 757.6875 C1838.0310434 752.31034816 1836.516408 747.18821352 1835 742 C1834.34 742 1833.68 742 1833 742 C1832.89171875 741.00484375 1832.7834375 740.0096875 1832.671875 738.984375 C1832.08066723 734.8707265 1830.75675 731.10831428 1829.25 727.25 C1828.98340576 726.55334229 1828.71681152 725.85668457 1828.44213867 725.13891602 C1826.52413829 720.18793138 1824.44111692 715.33047813 1822.17578125 710.52734375 C1821.30526822 708.65617455 1820.47843327 706.76454842 1819.67578125 704.86328125 C1817.15682847 698.94354199 1814.28679109 693.1815662 1811.49609375 687.38671875 C1811.06167969 686.48050781 1810.62726562 685.57429687 1810.1796875 684.640625 C1809.78507324 683.82110352 1809.39045898 683.00158203 1808.98388672 682.15722656 C1808 680 1808 680 1807 677 C1806.34 677 1805.68 677 1805 677 C1804.690625 676.05125 1804.38125 675.1025 1804.0625 674.125 C1803.12605258 671.13919592 1803.12605258 671.13919592 1802 669 C1801.34 669 1800.68 669 1800 669 C1799.8453125 667.948125 1799.8453125 667.948125 1799.6875 666.875 C1798.90640997 663.60862353 1797.57941257 660.9528148 1796 658 C1795.34 658 1794.68 658 1794 658 C1793.71125 657.0925 1793.4225 656.185 1793.125 655.25 C1792.23468224 652.67797092 1791.28505587 650.38653234 1790 648 C1789.34 648 1788.68 648 1788 648 C1787.773125 647.319375 1787.54625 646.63875 1787.3125 645.9375 C1785.91995702 642.8208562 1784.19618699 640.37807121 1782.17578125 637.6484375 C1780.8939504 635.85131916 1779.8888731 634.02016614 1779 632 C1778.34 632 1777.68 632 1777 632 C1776.71125 631.236875 1776.4225 630.47375 1776.125 629.6875 C1775.03730987 626.84970692 1775.03730987 626.84970692 1773 624 C1772.34 624 1771.68 624 1771 624 C1770.90203125 623.43023438 1770.8040625 622.86046875 1770.703125 622.2734375 C1769.85138809 619.51948816 1768.55761133 617.86486622 1766.75 615.625 C1766.11578125 614.83480469 1765.4815625 614.04460937 1764.828125 613.23046875 C1764.22484375 612.49441406 1763.6215625 611.75835938 1763 611 C1762.175 609.989375 1761.35 608.97875 1760.5 607.9375 C1757.95264068 604.94435279 1755.37401247 601.98209601 1752.7734375 599.03515625 C1751.59488511 597.68267653 1750.43313547 596.31536224 1749.2890625 594.93359375 C1748.76054687 594.29550781 1748.23203125 593.65742187 1747.6875 593 C1747.21699219 592.4225 1746.74648437 591.845 1746.26171875 591.25 C1745.05921273 589.76539999 1745.05921273 589.76539999 1743 590 C1742.731875 589.41734375 1742.46375 588.8346875 1742.1875 588.234375 C1740.98519009 585.97213399 1739.66174087 584.19423682 1738 582.25 C1737.2265625 581.32960938 1737.2265625 581.32960938 1736.4375 580.390625 C1735.09376748 578.76823624 1735.09376748 578.76823624 1733 579 C1732.7421875 578.41734375 1732.484375 577.8346875 1732.21875 577.234375 C1730.90165983 574.8197097 1729.44911616 573.18259823 1727.5 571.25 C1726.8915625 570.63640625 1726.283125 570.0228125 1725.65625 569.390625 C1724.10515723 567.78565912 1724.10515723 567.78565912 1722 568 C1721.7525 567.41734375 1721.505 566.8346875 1721.25 566.234375 C1719.81474554 563.66885764 1718.22336987 562.16275202 1716 560.25 C1715.29875 559.63640625 1714.5975 559.0228125 1713.875 558.390625 C1712.1213343 556.80143078 1712.1213343 556.80143078 1710 557 C1709.67 556.01 1709.34 555.02 1709 554 C1706.36458982 551.59004634 1706.36458982 551.59004634 1703 551 C1702.67 550.01 1702.34 549.02 1702 548 C1701.175 547.67 1700.35 547.34 1699.5 547 C1698.675 546.67 1697.85 546.34 1697 546 C1696.67 545.01 1696.34 544.02 1696 543 C1694.35666496 541.96210419 1692.68756133 540.96432076 1691 540 C1690.56558594 539.56042969 1690.13117187 539.12085938 1689.68359375 538.66796875 C1687.44519306 536.45034208 1684.98015422 534.67124457 1682.4375 532.8125 C1681.46683594 532.09707031 1680.49617188 531.38164063 1679.49609375 530.64453125 C1677.21983901 528.81661053 1677.21983901 528.81661053 1675 529 C1675 528.34 1675 527.68 1675 527 C1673.329375 526.01 1673.329375 526.01 1671.625 525 C1670.99851562 524.62875 1670.37203125 524.2575 1669.7265625 523.875 C1668.02527333 522.84931652 1668.02527333 522.84931652 1666 523 C1666 522.34 1666 521.68 1666 521 C1663.94178952 519.54557092 1661.90716344 518.22856463 1659.75 516.9375 C1658.87021484 516.39125977 1658.87021484 516.39125977 1657.97265625 515.83398438 C1655.04545178 514.05463874 1652.40784065 512.54829119 1649 512 C1649 511.34 1649 510.68 1649 510 C1639.92057094 504.01114459 1639.92057094 504.01114459 1630 501 C1630 500.34 1630 499.68 1630 499 C1626.90034597 497.4905412 1623.79458597 495.99409333 1620.6875 494.5 C1619.36588867 493.85611328 1619.36588867 493.85611328 1618.01757812 493.19921875 C1616.74624023 492.59013672 1616.74624023 492.59013672 1615.44921875 491.96875 C1614.66893311 491.59169922 1613.88864746 491.21464844 1613.0847168 490.82617188 C1610.90891335 489.81578852 1610.90891335 489.81578852 1608 490 C1608 489.34 1608 488.68 1608 488 C1601.5454156 485.29395431 1595.08484702 482.61157411 1588.57421875 480.04296875 C1586.69104599 479.27998373 1584.82012989 478.48655203 1582.95703125 477.67578125 C1577.58850492 475.34830835 1572.86203129 473.39968395 1567 473 C1567 472.34 1567 471.68 1567 471 C1566.01 470.74605469 1565.02 470.49210937 1564 470.23046875 C1551.98630537 467.11062153 1551.98630537 467.11062153 1547.625 465.375 C1541.93723914 463.21757347 1536.13299449 461.60432294 1530 462 C1530 461.34 1530 460.68 1530 460 C1529.09290283 459.83395264 1529.09290283 459.83395264 1528.16748047 459.66455078 C1525.40248208 459.15580802 1522.63875332 458.64046193 1519.875 458.125 C1518.92367187 457.95097656 1517.97234375 457.77695312 1516.9921875 457.59765625 C1515.6 457.33662109 1515.6 457.33662109 1514.1796875 457.0703125 C1512.90714111 456.83465576 1512.90714111 456.83465576 1511.60888672 456.59423828 C1509 456 1509 456 1506.16186523 454.99780273 C1502.5413353 453.8552573 1498.98689514 453.36923049 1495.23046875 452.96484375 C1494.50886063 452.88126114 1493.7872525 452.79767853 1493.04377747 452.71156311 C1490.75899645 452.44747086 1488.47339491 452.1917561 1486.1875 451.9375 C1483.88385715 451.67892539 1481.58049161 451.41846794 1479.27766418 451.15272522 C1477.84919545 450.98807056 1476.42023014 450.82765868 1474.99076843 450.67185974 C1470.11228639 450.11228639 1470.11228639 450.11228639 1469 449 C1466.87101277 448.76831106 1464.73472798 448.60337476 1462.59765625 448.46484375 C1461.9376915 448.42168533 1461.27772675 448.37852692 1460.59776306 448.33406067 C1458.41970683 448.19494201 1456.2412717 448.06490456 1454.0625 447.9375 C1452.94065308 447.87121399 1452.94065308 447.87121399 1451.79614258 447.80358887 C1431.77306166 446.64154461 1411.95526866 446.75472007 1391.9375 447.9375 Z " fill="#DEA22B" transform="translate(327,175)"/>
</svg>
