<?xml version="1.0" encoding="UTF-8" standalone="no" ?>
<!DOCTYPE svg PUBLIC "-//W3C//DTD SVG 1.1//EN" "http://www.w3.org/Graphics/SVG/1.1/DTD/svg11.dtd">
<svg xmlns="http://www.w3.org/2000/svg" xmlns:xlink="http://www.w3.org/1999/xlink" version="1.1" width="1080" height="1080" viewBox="0 0 1080 1080" xml:space="preserve">
<desc>Created with Fabric.js 5.2.4</desc>
<defs>
</defs>
<rect x="0" y="0" width="100%" height="100%" fill="transparent"></rect>
<g transform="matrix(1 0 0 1 540 540)" id="20ba3456-409e-49c6-9b02-3537800bf1c5"  >
<rect style="stroke: none; stroke-width: 1; stroke-dasharray: none; stroke-linecap: butt; stroke-dashoffset: 0; stroke-linejoin: miter; stroke-miterlimit: 4; fill: rgb(255,255,255); fill-rule: nonzero; opacity: 1; visibility: hidden;" vector-effect="non-scaling-stroke"  x="-540" y="-540" rx="0" ry="0" width="1080" height="1080" />
</g>
<g transform="matrix(1 0 0 1 540 540)" id="f61704ea-f641-4fad-8449-6c3037625f0b"  >
</g>
<g transform="matrix(1 0 0 1 540 540)"  >
<circle style="stroke: none; stroke-width: 1; stroke-dasharray: none; stroke-linecap: butt; stroke-dashoffset: 0; stroke-linejoin: miter; stroke-miterlimit: 4; fill: rgb(93,0,0); fill-rule: nonzero; opacity: 1;" vector-effect="non-scaling-stroke"  cx="0" cy="0" r="32" />
</g>
<g transform="matrix(1 0 0 1 540 541.95)"  >
<path style="stroke: none; stroke-width: 1; stroke-dasharray: none; stroke-linecap: butt; stroke-dashoffset: 0; stroke-linejoin: miter; stroke-miterlimit: 4; fill: rgb(35,31,32); fill-rule: nonzero; opacity: 0.2;" vector-effect="non-scaling-stroke"  transform=" translate(-32, -33.95)" d="M 43.9 47.5 C 40.1 45.8 38.699999999999996 43.3 38.3 41 C 41.099999999999994 38.8 43.199999999999996 35.2 44.4 31.4 C 45.6 29.799999999999997 46.4 28.2 46.4 26.799999999999997 C 46.4 25.799999999999997 46.1 25.199999999999996 45.4 24.599999999999998 C 45.199999999999996 16.5 39.5 9.999999999999998 32.4 9.899999999999999 C 32.3 9.899999999999999 32.3 9.899999999999999 32.199999999999996 9.899999999999999 C 32.199999999999996 9.899999999999999 32.199999999999996 9.899999999999999 32.099999999999994 9.899999999999999 C 24.999999999999993 9.899999999999999 19.299999999999994 16.299999999999997 18.999999999999993 24.299999999999997 C 18.099999999999994 24.799999999999997 17.599999999999994 25.599999999999998 17.599999999999994 26.799999999999997 C 17.599999999999994 28.4 18.599999999999994 30.4 20.299999999999994 32.199999999999996 C 21.499999999999993 35.49999999999999 23.399999999999995 38.599999999999994 25.799999999999994 40.599999999999994 C 25.399999999999995 42.89999999999999 24.099999999999994 45.599999999999994 20.099999999999994 47.39999999999999 C 17.899999999999995 48.29999999999999 13.999999999999995 49.19999999999999 12.299999999999994 49.99999999999999 C 16.6 55 24.9 58 31.9 58 L 32 58 C 32 58 32 58 32 58 C 39 58 47.3 55 51.7 50.2 C 50 49.3 46.1 48.5 43.9 47.5 z" stroke-linecap="round" />
</g>
<g transform="matrix(1 0 0 1 540 540)"  >
<path style="stroke: none; stroke-width: 1; stroke-dasharray: none; stroke-linecap: butt; stroke-dashoffset: 0; stroke-linejoin: miter; stroke-miterlimit: 4; fill: rgb(145,151,0); fill-rule: nonzero; opacity: 1;" vector-effect="non-scaling-stroke"  transform=" translate(-32, -31.95)" d="M 43.9 45.5 C 40.1 43.8 38.699999999999996 41.3 38.3 39 C 41.099999999999994 36.8 43.199999999999996 33.2 44.4 29.4 C 45.6 27.799999999999997 46.4 26.2 46.4 24.799999999999997 C 46.4 23.799999999999997 46.1 23.199999999999996 45.4 22.599999999999998 C 45.199999999999996 14.499999999999998 39.5 7.999999999999998 32.4 7.899999999999999 C 32.3 7.899999999999999 32.3 7.899999999999999 32.199999999999996 7.899999999999999 C 32.199999999999996 7.899999999999999 32.199999999999996 7.899999999999999 32.099999999999994 7.899999999999999 C 25.1 8 19.4 14.4 19 22.4 C 18.1 22.9 17.6 23.7 17.6 24.9 C 17.6 26.5 18.6 28.5 20.3 30.299999999999997 C 21.5 33.599999999999994 23.400000000000002 36.699999999999996 25.8 38.699999999999996 C 25.400000000000002 40.99999999999999 24.1 43.699999999999996 20.1 45.49999999999999 C 17.900000000000002 46.39999999999999 14.000000000000002 47.29999999999999 12.3 48.099999999999994 C 16.6 53 24.9 56 31.9 56 L 32 56 C 32 56 32 56 32 56 C 39 56 47.3 53 51.7 48.2 C 50 47.3 46.1 46.5 43.9 45.5 z" stroke-linecap="round" />
</g>
</svg>